name C:\Users\antoi\Documents\MyRepositories\upper-imu-dc\Results\main_tracking\Case_70\ABD01_angularVelocities_bodyFrame.mot
datacolumns 4
datarows 70
range 4.56000000 5.25000000
endheader 
time	radius_imu_x	radius_imu_y	radius_imu_z	
          4.56000000	         -0.80289144	         -0.17360665	         -0.29835703	
          4.57000000	         -0.80100648	         -0.18474545	         -0.29476769	
          4.58000000	         -0.79904086	         -0.19284327	         -0.29099748	
          4.59000000	         -0.79701662	         -0.19788238	         -0.28709221	
          4.60000000	         -0.79494479	         -0.19998884	         -0.28310697	
          4.61000000	         -0.79282988	         -0.19942707	         -0.27909843	
          4.62000000	         -0.79065920	         -0.19659318	         -0.27512172	
          4.63000000	         -0.78840213	         -0.19200266	         -0.27122421	
          4.64000000	         -0.78601447	         -0.18626759	         -0.26743961	
          4.65000000	         -0.78344530	         -0.18006052	         -0.26378416	
          4.66000000	         -0.78064502	         -0.17406497	         -0.26025524	
          4.67000000	         -0.77757405	         -0.16891471	         -0.25683157	
          4.68000000	         -0.77421132	         -0.16512795	         -0.25347478	
          4.69000000	         -0.77055963	         -0.16305010	         -0.25013365	
          4.70000000	         -0.76664638	         -0.16282267	         -0.24675035	
          4.71000000	         -0.76252066	         -0.16438899	         -0.24326564	
          4.72000000	         -0.75824861	         -0.16753031	         -0.23962090	
          4.73000000	         -0.75390808	         -0.17191404	         -0.23575799	
          4.74000000	         -0.74958340	         -0.17713717	         -0.23161926	
          4.75000000	         -0.74535856	         -0.18275866	         -0.22715157	
          4.76000000	         -0.74130899	         -0.18832323	         -0.22231332	
          4.77000000	         -0.73749678	         -0.19338210	         -0.21707716	
          4.78000000	         -0.73396824	         -0.19751613	         -0.21143055	
          4.79000000	         -0.73075113	         -0.20036144	         -0.20537846	
          4.80000000	         -0.72785453	         -0.20163424	         -0.19894557	
          4.81000000	         -0.72527131	         -0.20115089	         -0.19217651	
          4.82000000	         -0.72298258	         -0.19883931	         -0.18513383	
          4.83000000	         -0.72096229	         -0.19473888	         -0.17789495	
          4.84000000	         -0.71918473	         -0.18898839	         -0.17054616	
          4.85000000	         -0.71762992	         -0.18180509	         -0.16317962	
          4.86000000	         -0.71628471	         -0.17345885	         -0.15589451	
          4.87000000	         -0.71515077	         -0.16424549	         -0.14879111	
          4.88000000	         -0.71424900	         -0.15446382	         -0.14196260	
          4.89000000	         -0.71361422	         -0.14440080	         -0.13549206	
          4.90000000	         -0.71328598	         -0.13432605	         -0.12945024	
          4.91000000	         -0.71329370	         -0.12449383	         -0.12389567	
          4.92000000	         -0.71364959	         -0.11514691	         -0.11887628	
          4.93000000	         -0.71433353	         -0.10651183	         -0.11441779	
          4.94000000	         -0.71527953	         -0.09878572	         -0.11051885	
          4.95000000	         -0.71638889	         -0.09212097	         -0.10715289	
          4.96000000	         -0.71754826	         -0.08661189	         -0.10426094	
          4.97000000	         -0.71862142	         -0.08228768	         -0.10177071	
          4.98000000	         -0.71946738	         -0.07911295	         -0.09959900	
          4.99000000	         -0.71996798	         -0.07700523	         -0.09765061	
          5.00000000	         -0.72001831	         -0.07586108	         -0.09583451	
          5.01000000	         -0.71954048	         -0.07558243	         -0.09406636	
          5.02000000	         -0.71849453	         -0.07610530	         -0.09227255	
          5.03000000	         -0.71686746	         -0.07742075	         -0.09039474	
          5.04000000	         -0.71464955	         -0.07958731	         -0.08840153	
          5.05000000	         -0.71185404	         -0.08273241	         -0.08627307	
          5.06000000	         -0.70851469	         -0.08704093	         -0.08399627	
          5.07000000	         -0.70465545	         -0.09272369	         -0.08157550	
          5.08000000	         -0.70029741	         -0.09997913	         -0.07902299	
          5.09000000	         -0.69546102	         -0.10895510	         -0.07635256	
          5.10000000	         -0.69016806	         -0.11972231	         -0.07357641	
          5.11000000	         -0.68443596	         -0.13226375	         -0.07070958	
          5.12000000	         -0.67828584	         -0.14647599	         -0.06776010	
          5.13000000	         -0.67175068	         -0.16217812	         -0.06472219	
          5.14000000	         -0.66486913	         -0.17912053	         -0.06158320	
          5.15000000	         -0.65768436	         -0.19699507	         -0.05832484	
          5.16000000	         -0.65024374	         -0.21544825	         -0.05492426	
          5.17000000	         -0.64259973	         -0.23410060	         -0.05135546	
          5.18000000	         -0.63481181	         -0.25257309	         -0.04759444	
          5.19000000	         -0.62694576	         -0.27051822	         -0.04362845	
          5.20000000	         -0.61907185	         -0.28765040	         -0.03946354	
          5.21000000	         -0.61126331	         -0.30376941	         -0.03513107	
          5.22000000	         -0.60359626	         -0.31876930	         -0.03068179	
          5.23000000	         -0.59614531	         -0.33263086	         -0.02619120	
          5.24000000	         -0.58897566	         -0.34539684	         -0.02176093	
          5.25000000	         -0.58218463	         -0.35714097	         -0.01747856	
